<?xml version="1.0" encoding="iso-8859-1"?>

<!DOCTYPE svg PUBLIC "-//W3C//DTD SVG 1.1//EN" "http://www.w3.org/Graphics/SVG/1.1/DTD/svg11.dtd">
<!-- Uploaded to: SVG Repo, www.svgrepo.com, Generator: SVG Repo Mixer Tools -->
<svg version="1.1" id="_x34_" xmlns="http://www.w3.org/2000/svg" xmlns:xlink="http://www.w3.org/1999/xlink" 
	 viewBox="0 0 512 512"  xml:space="preserve">
<g>
	<polygon style="fill:#F0EFEF;" points="493.528,18.472 493.528,388.065 369.673,512 0,512 0,18.472 	"/>
	<rect y="46.495" style="fill:#E8E2E2;" width="493.528" height="97.727"/>
	<rect y="18.472" style="fill:#C56161;" width="493.528" height="107.989"/>
	<g>
		<g>
			<path style="fill:#7A6E66;" d="M99.067,64.007c-2.177,1.914-4.647,3.389-7.294,4.424c-4.309,1.708-9.074,2.264-13.662,1.669
				c-2.324-0.298-4.618-0.88-6.794-1.772c-2.544-1.035-4.927-2.484-7.015-4.321c-3.882-3.428-6.191-7.697-6.941-12.134
				c-1.103-6.546,1.221-13.44,6.927-18.472c2.103-1.837,4.485-3.286,7.03-4.321c4.397-1.798,9.265-2.406,13.986-1.785
				c2.206,0.298,4.397,0.854,6.471,1.669c2.647,1.048,5.132,2.523,7.309,4.437c3.897,3.428,6.206,7.71,6.927,12.147
				C107.096,52.08,104.802,58.962,99.067,64.007z"/>
			<path style="fill:#594B4B;" d="M105.839,52.187c-0.768-4.35-3.087-8.551-6.895-11.901c-9.614-8.456-25.186-8.456-34.8,0
				c-3.809,3.35-6.127,7.551-6.896,11.901c-1.182-6.605,1.121-13.576,6.896-18.655c9.614-8.456,25.186-8.456,34.8,0
				C104.718,38.611,107.021,45.581,105.839,52.187z"/>
			<path style="fill:#E9D8C4;" d="M91.806,15.551V68.44c-4.342,1.737-9.078,2.29-13.735,1.658c-2.29-0.316-4.579-0.868-6.789-1.737
				v-52.81C71.282,7.026,75.939,0,81.544,0c2.763,0,5.368,1.736,7.262,4.579C90.622,7.42,91.806,11.209,91.806,15.551z"/>
		</g>
		<g>
			<path style="fill:#7A6E66;" d="M264.226,64.007c-2.177,1.914-4.647,3.389-7.294,4.424c-4.309,1.708-9.074,2.264-13.662,1.669
				c-2.324-0.298-4.618-0.88-6.794-1.772c-2.544-1.035-4.927-2.484-7.015-4.321c-3.883-3.428-6.191-7.697-6.941-12.134
				c-1.103-6.546,1.22-13.44,6.927-18.472c2.103-1.837,4.485-3.286,7.03-4.321c4.397-1.798,9.265-2.406,13.986-1.785
				c2.206,0.298,4.397,0.854,6.471,1.669c2.647,1.048,5.133,2.523,7.309,4.437c3.897,3.428,6.206,7.71,6.927,12.147
				C272.255,52.08,269.961,58.962,264.226,64.007z"/>
			<path style="fill:#594B4B;" d="M270.998,52.187c-0.768-4.35-3.087-8.551-6.895-11.901c-9.614-8.456-25.186-8.456-34.8,0
				c-3.809,3.35-6.128,7.551-6.896,11.901c-1.182-6.605,1.121-13.576,6.896-18.655c9.614-8.456,25.186-8.456,34.8,0
				C269.877,38.611,272.18,45.581,270.998,52.187z"/>
			<path style="fill:#E9D8C4;" d="M256.947,15.551V68.44c-4.342,1.737-9.078,2.29-13.656,1.658
				c-2.368-0.316-4.658-0.868-6.789-1.737v-52.81C236.502,7.026,241.08,0,246.685,0c2.842,0,5.368,1.736,7.262,4.579
				C255.763,7.42,256.947,11.209,256.947,15.551z"/>
		</g>
		<g>
			<path style="fill:#7A6E66;" d="M429.385,64.007c-2.177,1.914-4.647,3.389-7.294,4.424c-4.309,1.708-9.074,2.264-13.662,1.669
				c-2.324-0.298-4.618-0.88-6.794-1.772c-2.544-1.035-4.927-2.484-7.015-4.321c-3.882-3.428-6.191-7.697-6.941-12.134
				c-1.103-6.546,1.22-13.44,6.927-18.472c2.103-1.837,4.485-3.286,7.029-4.321c4.397-1.798,9.265-2.406,13.986-1.785
				c2.206,0.298,4.397,0.854,6.471,1.669c2.647,1.048,5.133,2.523,7.309,4.437c3.897,3.428,6.206,7.71,6.927,12.147
				C437.414,52.08,435.12,58.962,429.385,64.007z"/>
			<path style="fill:#594B4B;" d="M436.157,52.187c-0.768-4.35-3.087-8.551-6.895-11.901c-9.614-8.456-25.186-8.456-34.8,0
				c-3.809,3.35-6.128,7.551-6.896,11.901c-1.182-6.605,1.121-13.576,6.896-18.655c9.613-8.456,25.186-8.456,34.8,0
				C435.036,38.611,437.339,45.581,436.157,52.187z"/>
			<path style="fill:#E9D8C4;" d="M422.088,15.551V68.44c-4.342,1.737-9.078,2.29-13.656,1.658
				c-2.289-0.316-4.657-0.868-6.789-1.737v-52.81C401.643,7.026,406.222,0,411.826,0c2.842,0,5.447,1.736,7.263,4.579
				C420.904,7.42,422.088,11.209,422.088,15.551z"/>
		</g>
	</g>
	<rect x="65.867" y="195.619" style="fill:#D3D3D3;" width="181.45" height="43.733"/>
	<rect x="65.867" y="286.195" style="fill:#D3D3D3;" width="361.817" height="43.733"/>
	<rect x="65.867" y="386.119" style="fill:#D3D3D3;" width="361.817" height="43.733"/>
	<polygon style="fill:#847F7F;" points="495.117,388.083 369.639,511.999 369.639,388.083 	"/>
	<g>
		<path style="fill:#6EB1AC;" d="M325.466,218.424l-9.551-30.786l-0.947-3.158h-18.077l-10.262,32.444l-6.315,19.893h14.446
			l3.394-12.236h14.446l1.579,5.131l2.132,7.105h14.762L325.466,218.424z M299.89,215.663l2.842-10.499
			c0.395-1.578,0.79-3.631,1.342-5.683c0.395-1.895,0.868-3.789,1.263-5.368h0.158c0.237,0.947,0.474,1.973,0.789,3.158
			c0.553,2.685,1.263,5.683,1.894,7.894l2.763,10.499H299.89z"/>
		<path style="fill:#6EB1AC;" d="M369.909,184.56v31.576c0,8.367-3.157,11.604-8.604,11.604c-5.289,0-8.526-3.474-8.526-11.604
			V184.56h-14.288v30.154c0,15.078,7.341,22.814,22.577,22.814c15.078,0,23.129-7.736,23.129-22.656V184.56H369.909z"/>
		<path style="fill:#6EB1AC;" d="M420.036,206.663v9.394h7.499v10.973c-0.789,0.395-2.447,0.553-4.499,0.553
			c-6.71,0-12.473-3.317-14.604-10.183c-0.553-1.815-0.868-3.947-0.868-6.316c0-11.92,7.578-16.893,17.682-16.893
			c2.211,0,4.105,0.158,5.762,0.395c2.29,0.315,4.105,0.789,5.763,1.421l2.684-9.867c-0.079,0-0.079,0-0.079-0.079
			c-2.763-1.027-7.973-2.052-14.525-2.052c-17.603,0-32.286,8.998-32.286,27.076c0,6.553,1.816,12.473,5.447,16.893
			c0.947,1.105,1.973,2.132,3.158,3.079c4.973,4.026,12.156,6.236,22.024,6.236c6.789,0,14.13-1.342,17.84-2.527v-28.103H420.036z"
			/>
	</g>
	<path style="opacity:0.1;fill:#FFFFFF;" d="M485.082,18.472l-0.158,0.158l-27.865,27.866L315.915,187.639l-9.631,9.63l-2.21,2.211
		l-17.446,17.445L117.462,386.091l-43.732,43.733L0,503.554V18.472h71.282v-2.921C71.282,7.026,75.939,0,81.544,0
		c2.763,0,5.368,1.736,7.262,4.579c1.815,2.841,3,6.63,3,10.972v2.921h144.696v-2.921C236.502,7.026,241.08,0,246.685,0
		c2.842,0,5.368,1.736,7.262,4.579c1.816,2.841,3,6.63,3,10.972v2.921h144.696v-2.921C401.643,7.026,406.222,0,411.826,0
		c2.842,0,5.447,1.736,7.263,4.579c1.815,2.841,2.999,6.63,2.999,10.972v2.921H485.082z"/>
</g>
</svg>